<?xml version="1.0" encoding="UTF-8" standalone="no"?>
<!-- Created with Inkscape (http://www.inkscape.org/) -->

<svg
   width="24"
   height="24"
   viewBox="0 0 24 24"
   version="1.1"
   inkscape:version="1.2.2 (732a01da63, 2022-12-09)"
   sodipodi:docname="bee.svg"
   id="svg"
   xml:space="preserve"
   inkscape:export-filename="brain.svg"
   inkscape:export-xdpi="96.000008"
   inkscape:export-ydpi="96.000008"
   xmlns:inkscape="http://www.inkscape.org/namespaces/inkscape"
   xmlns:sodipodi="http://sodipodi.sourceforge.net/DTD/sodipodi-0.dtd"
   xmlns="http://www.w3.org/2000/svg"
   xmlns:svg="http://www.w3.org/2000/svg"><sodipodi:namedview
     pagecolor="#ffffff"
     bordercolor="#666666"
     borderopacity="1.0"
     inkscape:pageshadow="2"
     inkscape:pageopacity="0.0"
     inkscape:pagecheckerboard="0"
     inkscape:document-units="px"
     showgrid="false"
     units="px"
     inkscape:zoom="26.982805"
     inkscape:cx="12.026177"
     inkscape:cy="11.970586"
     inkscape:window-width="1920"
     inkscape:window-height="1020"
     inkscape:window-x="0"
     inkscape:window-y="0"
     inkscape:window-maximized="1"
     inkscape:current-layer="layer"
     id="namedview"
     inkscape:showpageshadow="2"
     inkscape:deskcolor="#d1d1d1" /><defs
     id="defs"><clipPath
       clipPathUnits="userSpaceOnUse"
       id="clipPathBody"><path
         style="fill:#fbbc04;fill-opacity:1;fill-rule:evenodd;stroke:none;stroke-width:2"
         d="M 5 12 L 5 16 A 7 7 0 0 0 12 23 A 7 7 0 0 0 19 16 L 19 12 L 5 12 z "
         id="path829" /></clipPath><inkscape:path-effect
       effect="fill_between_many"
       method="originald"
       linkedpaths="#path1654,0,1|"
       id="path-effect1657" /></defs><g
     inkscape:groupmode="layer"
     id="layer"
     style="display:inline;fill:#000000;stroke-width:0.876113"
     inkscape:label="layer"
     transform="matrix(1.143729,0,0,1.139088,-2.1775095,-1.5946809)"><path
       style="fill:#000000;stroke-width:0.876111"
       d="m 12.988281,14.291016 c -0.409511,-0.02311 -0.763173,0.372048 -0.357422,0.740234 h 2.539063 c 0.410026,-0.120363 0.605777,0.282816 0.875,0.507812 0.422538,0.520923 1.250525,0.924423 1.296875,1.585938 -0.4791,0.952577 0.104395,2.268325 1.189453,2.435547 1.164706,0.299063 2.304568,-0.767543 2.082031,-1.951172 -0.10974,-1.212358 -1.664796,-1.819681 -2.652343,-1.207031 l -2.082032,-2.074219 h -2.71289 c -0.05873,-0.02166 -0.119233,-0.03381 -0.177735,-0.03711 z"
       id="line3" /><path
       style="fill:#000000;stroke-width:0.876111"
       d="m 21.183594,10.21875 c -0.776266,0.01967 -1.547381,0.51593 -1.6875,1.34375 -1.712194,4.28e-4 -3.424528,-4.47e-4 -5.136719,0.002 -0.56941,0.01235 -2.462557,-0.212734 -1.652344,0.708985 1.893867,0.08125 3.79193,0.01489 5.6875,0.04297 1.288971,-0.46739 1.27563,1.122421 2.375,1.304688 0.277897,0.06539 0.571608,0.05638 0.847657,-0.01367 1.274781,-0.228 1.729438,-1.998443 0.832031,-2.878906 C 22.115494,10.366069 21.649353,10.207 21.183594,10.218801 Z"
       id="line2" /><path
       style="fill:#000000;stroke-width:0.876111"
       d="m 18.875,4.2539062 c -0.07313,0.00303 -0.146109,0.011667 -0.220703,0.025391 -1.228831,0.1132173 -1.861804,1.6932129 -1.224609,2.7011719 L 15.519531,8.84375 H 13.34375 c -0.399238,-0.059136 -1.146217,-0.024939 -0.808594,0.5800781 0.03238,0.04117 0.06332,0.081877 0.0957,0.1230469 h 3.248047 c 0.51232,-0.5104717 1.022844,-1.0207775 1.535159,-1.53125 0.285438,-0.2341974 0.514926,-0.7580288 0.908204,-0.375 C 19.26456,7.9254611 20.380417,7.4232593 20.591797,6.4121094 20.871702,5.3272297 19.971927,4.2084634 18.875,4.2539062 Z"
       id="line1" /><path
       style="opacity:0.99;fill:#000000;stroke-width:0.876111"
       d="M 11.519531,1.3964844 C 10.957323,1.399122 10.414825,1.5613667 10.166016,2.0644531 10.058996,3.0043707 9.2102336,3.748744 8.2695312,3.7617188 7.3120682,3.6054442 6.261133,2.7972755 5.5722656,3.9804688 4.9724989,4.675514 4.0442274,5.2101498 3.7597656,6.1035156 4.0178074,7.0009097 4.649394,8.036142 3.8808594,8.9003906 3.4500684,9.6777907 2.2531466,9.4262884 1.9648438,10.308594 c -0.062009,1.055422 -0.00941,2.139283 -0.027344,3.205078 0.3488466,1.019158 1.8918529,0.690616 2.1464844,1.849609 0.6125699,0.921538 -0.419713,1.745897 -0.2753906,2.640625 0.6519622,0.898669 1.5208298,1.638916 2.3222656,2.410156 0.8529752,0.637729 1.6734212,-0.692582 2.6152344,-0.236328 1.1872093,0.137646 1.1427555,1.523066 1.8613284,2.13086 0.628281,0.160479 1.601143,0.274035 2.18164,-0.05078 -0.0063,-1.790647 0.05374,-3.582178 -0.01367,-5.371093 C 11.895253,16.308834 10.427423,16.552356 9.578125,15.660156 7.2514524,13.985722 7.1879965,10.135859 9.40625,8.3476562 10.30125,7.4318099 11.685912,7.4711241 12.751953,7.0625 12.859173,5.6253452 12.79514,4.1779125 12.8125,2.7363281 12.76693,2.3645945 12.906557,1.9154832 12.740234,1.59375 12.40712,1.4878868 11.956805,1.3944329 11.519531,1.3964844 Z"
       id="setting" /></g></svg>
